<svg width="33" height="32" viewBox="0 0 33 32" fill="none" xmlns="http://www.w3.org/2000/svg">
<path d="M19.1667 28C18.813 28 18.4739 27.8595 18.2239 27.6095C17.9738 27.3594 17.8333 27.0203 17.8333 26.6667V16C17.8333 15.6464 17.9738 15.3072 18.2239 15.0572C18.4739 14.8071 18.813 14.6667 19.1667 14.6667H27.1667C27.5203 14.6667 27.8594 14.8071 28.1095 15.0572C28.3595 15.3072 28.5 15.6464 28.5 16V26.6667C28.5 27.0203 28.3595 27.3594 28.1095 27.6095C27.8594 27.8595 27.5203 28 27.1667 28H19.1667ZM5.83333 17.3333C5.47971 17.3333 5.14057 17.1929 4.89052 16.9428C4.64048 16.6928 4.5 16.3536 4.5 16V5.33333C4.5 4.97971 4.64048 4.64057 4.89052 4.39052C5.14057 4.14048 5.47971 4 5.83333 4H13.8333C14.187 4 14.5261 4.14048 14.7761 4.39052C15.0262 4.64057 15.1667 4.97971 15.1667 5.33333V16C15.1667 16.3536 15.0262 16.6928 14.7761 16.9428C14.5261 17.1929 14.187 17.3333 13.8333 17.3333H5.83333ZM12.5 14.6667V6.66667H7.16667V14.6667H12.5ZM5.83333 28C5.47971 28 5.14057 27.8595 4.89052 27.6095C4.64048 27.3594 4.5 27.0203 4.5 26.6667V21.3333C4.5 20.9797 4.64048 20.6406 4.89052 20.3905C5.14057 20.1405 5.47971 20 5.83333 20H13.8333C14.187 20 14.5261 20.1405 14.7761 20.3905C15.0262 20.6406 15.1667 20.9797 15.1667 21.3333V26.6667C15.1667 27.0203 15.0262 27.3594 14.7761 27.6095C14.5261 27.8595 14.187 28 13.8333 28H5.83333ZM7.16667 25.3333H12.5V22.6667H7.16667V25.3333ZM20.5 25.3333H25.8333V17.3333H20.5V25.3333ZM17.8333 5.33333C17.8333 4.97971 17.9738 4.64057 18.2239 4.39052C18.4739 4.14048 18.813 4 19.1667 4H27.1667C27.5203 4 27.8594 4.14048 28.1095 4.39052C28.3595 4.64057 28.5 4.97971 28.5 5.33333V10.6667C28.5 11.0203 28.3595 11.3594 28.1095 11.6095C27.8594 11.8595 27.5203 12 27.1667 12H19.1667C18.813 12 18.4739 11.8595 18.2239 11.6095C17.9738 11.3594 17.8333 11.0203 17.8333 10.6667V5.33333ZM20.5 6.66667V9.33333H25.8333V6.66667H20.5Z" fill="#C07A8C"/>
</svg>
