<svg width="33" height="32" viewBox="0 0 33 32" fill="none" xmlns="http://www.w3.org/2000/svg">
<path d="M16.5003 10.667C18.387 10.667 19.3297 10.667 19.9137 10.0803C20.5003 9.49499 20.5003 8.55366 20.5003 6.66699C20.5003 4.78033 20.5003 3.83766 19.9137 3.25366C19.3283 2.66699 18.387 2.66699 16.5003 2.66699C14.6137 2.66699 13.671 2.66699 13.087 3.25366C12.5003 3.83899 12.5003 4.78166 12.5003 6.66699C12.5003 8.55366 12.5003 9.49633 13.087 10.0803C13.6723 10.667 14.6137 10.667 16.5003 10.667ZM16.5003 10.667V12.0003M7.16699 21.3337C5.28033 21.3337 4.33766 21.3337 3.75366 21.9203C3.16699 22.5057 3.16699 23.4483 3.16699 25.3337C3.16699 27.2203 3.16699 28.163 3.75366 28.747C4.33899 29.3337 5.28033 29.3337 7.16699 29.3337C9.05366 29.3337 9.99633 29.3337 10.5803 28.747C11.167 28.1617 11.167 27.2203 11.167 25.3337C11.167 23.447 11.167 22.5043 10.5803 21.9203C9.99499 21.3337 9.05366 21.3337 7.16699 21.3337ZM7.16699 21.3337V20.0003C7.16699 18.7577 7.16699 18.1363 7.40433 17.647C7.71899 16.9937 8.32566 16.4737 9.08699 16.203C9.66033 16.0003 10.3843 16.0003 11.8337 16.0003C13.283 16.0003 14.007 16.0003 14.5803 15.7977C15.343 15.527 15.9483 15.007 16.263 14.3537C16.5003 13.8643 16.5003 13.243 16.5003 12.0003M25.8337 21.3337C23.947 21.3337 23.0043 21.3337 22.4203 21.9203C21.8337 22.5057 21.8337 23.4483 21.8337 25.3337C21.8337 27.2203 21.8337 28.163 22.4203 28.747C23.0057 29.3337 23.9483 29.3337 25.8337 29.3337C27.719 29.3337 28.6617 29.3337 29.247 28.747C29.8337 28.1617 29.8337 27.219 29.8337 25.3337C29.8337 23.4483 29.8337 22.5057 29.247 21.9203C28.6617 21.3337 27.7203 21.3337 25.8337 21.3337ZM25.8337 21.3337V20.0003C25.8337 18.7577 25.8337 18.1363 25.5963 17.647C25.2817 16.9937 24.675 16.4737 23.9137 16.203C23.3403 16.0003 22.6163 16.0003 21.167 16.0003C19.7177 16.0003 18.9937 16.0003 18.4203 15.7977C17.6577 15.527 17.0523 15.007 16.7377 14.3537C16.5003 13.8643 16.5003 13.243 16.5003 12.0003" stroke="#53DA64" stroke-width="2" stroke-linecap="round" stroke-linejoin="round"/>
</svg>
