<svg width="33" height="32" viewBox="0 0 33 32" fill="none" xmlns="http://www.w3.org/2000/svg">
<path d="M16.5003 29.3337C9.13633 29.3337 3.16699 23.3643 3.16699 16.0003C3.16699 8.63633 9.13633 2.66699 16.5003 2.66699C23.8643 2.66699 29.8337 8.63633 29.8337 16.0003C29.8337 23.3643 23.8643 29.3337 16.5003 29.3337ZM16.5003 26.667C19.3293 26.667 22.0424 25.5432 24.0428 23.5428C26.0432 21.5424 27.167 18.8293 27.167 16.0003C27.167 13.1713 26.0432 10.4582 24.0428 8.45785C22.0424 6.45747 19.3293 5.33366 16.5003 5.33366C13.6713 5.33366 10.9582 6.45747 8.95785 8.45785C6.95747 10.4582 5.83366 13.1713 5.83366 16.0003C5.83366 18.8293 6.95747 21.5424 8.95785 23.5428C10.9582 25.5432 13.6713 26.667 16.5003 26.667ZM17.8337 16.0003H23.167V18.667H15.167V9.33366H17.8337V16.0003Z" fill="#EA8484"/>
</svg>
